<svg width="772" height="751" viewBox="0 0 772 751" fill="none" xmlns="http://www.w3.org/2000/svg">
<path d="M-62.053 571.841C-90.5293 522.221 -105.333 464.46 -105.333 401.015C-105.333 277.925 -49.6348 176.274 53.4906 113.842C248.618 -4.29709 210.798 260.286 347.334 107.941C433.835 8.14267 485.61 0 558.904 0C740.198 0 784.106 273.177 662.899 337.026C605.623 367.199 552.857 345.153 551.967 291.735C551.32 252.61 536.01 219.09 509.232 193.167C445.383 131.357 336.191 169.611 285.568 223.729C233.915 278.984 195.104 266.529 187.56 217.626C180.016 168.723 167.861 129.022 87.1239 144.264C15.6703 157.747 -16.0015 212.877 -19.1161 217.626C-54.5699 267.899 -73.6012 329.74 -73.6012 401.031C-73.6012 401.031 -75.1178 512.802 10.5537 481.368C96.2253 449.934 147.899 345.138 212.294 354.09C283.344 363.961 224.146 495.894 322.033 511.09C464.496 533.198 817.981 319.293 766.105 511.09C732.108 636.78 605.036 723.266 434.664 748.348C257.294 774.473 314.874 577.928 254.442 579.874C177.973 576.075 156.05 769.009 21.6975 666.626C-13.2304 640.002 -41.3025 608.117 -62.0935 571.872L-62.053 571.841Z" fill="#19191E"/>
</svg>
