<svg width="70" height="87" viewBox="0 0 70 87" fill="none" xmlns="http://www.w3.org/2000/svg">
<path d="M3.45596 65.6137C1.18212 59.9207 0 53.2934 0 46.0142C0 31.8915 4.44756 20.2286 12.6822 13.0655C28.2631 -0.489117 25.2432 29.8676 36.1457 12.3885C43.0528 0.938152 47.187 0.00390625 53.0396 0.00390625C67.5159 0.00390625 71.022 31.3467 61.3437 38.6724C56.7701 42.1343 52.5567 39.6049 52.4857 33.476C52.434 28.987 51.2115 25.141 49.0733 22.1668C43.9749 15.0751 35.2558 19.4641 31.2136 25.6733C27.0891 32.013 23.99 30.5839 23.3876 24.9731C22.7853 19.3623 21.8146 14.8072 15.3678 16.556C9.66219 18.1029 7.13319 24.4283 6.88449 24.9731C4.05349 30.7411 2.53384 37.8364 2.53384 46.016C2.53384 46.016 2.41273 58.84 9.25364 55.2334C16.0945 51.6268 20.2207 39.6031 25.3627 40.6302C31.036 41.7627 26.3091 56.9 34.1254 58.6435C45.501 61.1801 73.727 36.6378 69.5847 58.6435C66.87 73.0645 56.7233 82.9875 43.119 85.8652C28.9559 88.8627 33.5537 66.3122 28.7282 66.5354C22.6221 66.0996 20.8715 88.2357 10.1435 76.4888C7.35446 73.4342 5.11289 69.7758 3.45273 65.6173L3.45596 65.6137Z" fill="#F5EBFF" fill-opacity="0.55"/>
</svg>
