<svg width="73" height="79" viewBox="0 0 73 79" fill="none" xmlns="http://www.w3.org/2000/svg">
<path d="M72.9999 18.2512H60.8335V30.4176H72.9999V18.2512Z" fill="#FFFA78" fill-opacity="0.55"/>
<path d="M66.9168 6.08301H54.7505V18.2494H66.9168V6.08301Z" fill="#FFFA78" fill-opacity="0.55"/>
<path d="M66.9168 60.1589H54.7505V72.3253H66.9168V60.1589Z" fill="#FFFA78" fill-opacity="0.55"/>
<path d="M72.9999 47.9907H60.8335V60.1571H72.9999V47.9907Z" fill="#FFFA78" fill-opacity="0.55"/>
<path d="M12.1664 33.2905H0V45.4569H12.1664V33.2905Z" fill="#FFFA78" fill-opacity="0.55"/>
<path d="M12.1664 45.457H0V57.6234H12.1664V45.457Z" fill="#FFFA78" fill-opacity="0.55"/>
<path d="M18.2493 57.623H6.08301V69.7894H18.2493V57.623Z" fill="#FFFA78" fill-opacity="0.55"/>
<path d="M30.4159 66.2419H18.2495V78.4083H30.4159V66.2419Z" fill="#FFFA78" fill-opacity="0.55"/>
<path d="M42.5822 66.2419H30.4158V78.4083H42.5822V66.2419Z" fill="#FFFA78" fill-opacity="0.55"/>
<path d="M12.1664 21.1243H0V33.2906H12.1664V21.1243Z" fill="#FFFA78" fill-opacity="0.55"/>
<path d="M42.5822 0H30.4158V12.1664H42.5822V0Z" fill="#FFFA78" fill-opacity="0.55"/>
<path d="M54.7483 66.2419H42.582V78.4083H54.7483V66.2419Z" fill="#FFFA78" fill-opacity="0.55"/>
<path d="M54.7504 0H42.584V12.1664H54.7504V0Z" fill="#FFFA78" fill-opacity="0.55"/>
<path d="M18.2493 8.95605H6.08301V21.1224H18.2493V8.95605Z" fill="#FFFA78" fill-opacity="0.55"/>
<path d="M30.4159 0H18.2495V12.1664H30.4159V0Z" fill="#FFFA78" fill-opacity="0.55"/>
</svg>
